<mxfile host="65bd71144e">
    <diagram id="treatment-recommendation" name="治疗方案推荐活动图">
        <mxGraphModel dx="1422" dy="798" grid="1" gridSize="10" guides="1" tooltips="1" connect="1" arrows="1" fold="1" page="1" pageScale="1" pageWidth="827" pageHeight="1169" math="0" shadow="0">
            <root>
                <mxCell id="0"/>
                <mxCell id="1" parent="0"/>
                
                <!-- 泳道 -->
                <mxCell id="doctor_lane" value="医生" style="swimlane;horizontal=0;" vertex="1" parent="1">
                    <mxGeometry x="40" y="40" width="300" height="800" as="geometry"/>
                </mxCell>
                
                <mxCell id="system_lane" value="系统" style="swimlane;horizontal=0;" vertex="1" parent="1">
                    <mxGeometry x="340" y="40" width="300" height="800" as="geometry"/>
                </mxCell>

                <!-- 开始节点 -->
                <mxCell id="start" value="" style="ellipse;fillColor=#000000;" vertex="1" parent="doctor_lane">
                    <mxGeometry x="135" y="60" width="30" height="30" as="geometry"/>
                </mxCell>

                <!-- 医生活动 -->
                <mxCell id="act1" value="选择治疗类型&#10;(中医/西医)" style="rounded=1;" vertex="1" parent="doctor_lane">
                    <mxGeometry x="100" y="140" width="100" height="40" as="geometry"/>
                </mxCell>

                <mxCell id="act2" value="录入检查结果" style="rounded=1;" vertex="1" parent="doctor_lane">
                    <mxGeometry x="100" y="220" width="100" height="40" as="geometry"/>
                </mxCell>

                <mxCell id="act3" value="查看治疗建议" style="rounded=1;" vertex="1" parent="doctor_lane">
                    <mxGeometry x="100" y="380" width="100" height="40" as="geometry"/>
                </mxCell>

                <mxCell id="decision1" value="是否查看&#10;检查结果方案" style="rhombus;" vertex="1" parent="doctor_lane">
                    <mxGeometry x="110" y="460" width="80" height="60" as="geometry"/>
                </mxCell>

                <mxCell id="act4" value="查看检查结果方案" style="rounded=1;" vertex="1" parent="doctor_lane">
                    <mxGeometry x="100" y="560" width="100" height="40" as="geometry"/>
                </mxCell>

                <mxCell id="act5" value="确认治疗方案" style="rounded=1;" vertex="1" parent="doctor_lane">
                    <mxGeometry x="100" y="660" width="100" height="40" as="geometry"/>
                </mxCell>

                <!-- 系统活动 -->
                <mxCell id="sys_act1" value="分析检查结果" style="rounded=1;" vertex="1" parent="system_lane">
                    <mxGeometry x="100" y="220" width="100" height="40" as="geometry"/>
                </mxCell>

                <mxCell id="sys_act2" value="生成治疗建议" style="rounded=1;" vertex="1" parent="system_lane">
                    <mxGeometry x="100" y="300" width="100" height="40" as="geometry"/>
                </mxCell>

                <mxCell id="sys_act3" value="生成检查结果方案" style="rounded=1;" vertex="1" parent="system_lane">
                    <mxGeometry x="100" y="560" width="100" height="40" as="geometry"/>
                </mxCell>

                <mxCell id="sys_act4" value="记录治疗方案" style="rounded=1;" vertex="1" parent="system_lane">
                    <mxGeometry x="100" y="660" width="100" height="40" as="geometry"/>
                </mxCell>

                <!-- 结束节点 -->
                <mxCell id="end" value="" style="ellipse;fillColor=#000000;strokeColor=#ffffff;strokeWidth=2;" vertex="1" parent="system_lane">
                    <mxGeometry x="135" y="740" width="30" height="30" as="geometry"/>
                </mxCell>

                <!-- 连接线 -->
                <mxCell id="edge1" value="" style="endArrow=classic;html=1;" edge="1" parent="1" source="start" target="act1">
                    <mxGeometry relative="1" as="geometry"/>
                </mxCell>

                <mxCell id="edge2" value="" style="endArrow=classic;html=1;" edge="1" parent="1" source="act1" target="act2">
                    <mxGeometry relative="1" as="geometry"/>
                </mxCell>

                <mxCell id="edge3" value="" style="endArrow=classic;html=1;" edge="1" parent="1" source="act2" target="sys_act1">
                    <mxGeometry relative="1" as="geometry"/>
                </mxCell>

                <mxCell id="edge4" value="" style="endArrow=classic;html=1;" edge="1" parent="1" source="sys_act1" target="sys_act2">
                    <mxGeometry relative="1" as="geometry"/>
                </mxCell>

                <mxCell id="edge5" value="" style="endArrow=classic;html=1;" edge="1" parent="1" source="sys_act2" target="act3">
                    <mxGeometry relative="1" as="geometry"/>
                </mxCell>

                <mxCell id="edge6" value="" style="endArrow=classic;html=1;" edge="1" parent="1" source="act3" target="decision1">
                    <mxGeometry relative="1" as="geometry"/>
                </mxCell>

                <mxCell id="edge7" value="是" style="endArrow=classic;html=1;" edge="1" parent="1" source="decision1" target="act4">
                    <mxGeometry relative="1" as="geometry"/>
                </mxCell>

                <mxCell id="edge8" value="" style="endArrow=classic;html=1;" edge="1" parent="1" source="act4" target="sys_act3">
                    <mxGeometry relative="1" as="geometry"/>
                </mxCell>

                <mxCell id="edge9" value="" style="endArrow=classic;html=1;" edge="1" parent="1" source="sys_act3" target="act5">
                    <mxGeometry relative="1" as="geometry"/>
                </mxCell>

                <mxCell id="edge10" value="否" style="endArrow=classic;html=1;" edge="1" parent="1" source="decision1" target="act5">
                    <mxGeometry relative="1" as="geometry">
                        <Array as="points">
                            <mxPoint x="250" y="490"/>
                            <mxPoint x="250" y="630"/>
                            <mxPoint x="150" y="630"/>
                        </Array>
                    </mxGeometry>
                </mxCell>

                <mxCell id="edge11" value="" style="endArrow=classic;html=1;" edge="1" parent="1" source="act5" target="sys_act4">
                    <mxGeometry relative="1" as="geometry"/>
                </mxCell>

                <mxCell id="edge12" value="" style="endArrow=classic;html=1;" edge="1" parent="1" source="sys_act4" target="end">
                    <mxGeometry relative="1" as="geometry"/>
                </mxCell>

            </root>
        </mxGraphModel>
    </diagram>
</mxfile>